<svg width="243" height="98" viewBox="0 0 243 98" fill="none" xmlns="http://www.w3.org/2000/svg">
<g style="mix-blend-mode:overlay">
<path fill-rule="evenodd" clip-rule="evenodd" d="M0.114429 43.5954L34.7767 17.6954C34.9379 17.5811 35.1194 17.6616 35.1156 17.8356L34.9051 27.6563L34.6624 27.8375L34.6469 55.0199L34.3221 54.849L34.2564 57.9139C34.2526 58.088 34.0664 58.2312 33.9089 58.1714L0.105902 43.9932C-0.039044 43.9189 -0.0342483 43.6951 0.114429 43.5954ZM101.775 59.5413L60.3594 84.9585C60.1667 85.0692 59.9441 84.9436 59.9439 84.7358L59.9364 73.0097L80.696 60.277C80.8887 60.1662 80.8886 59.8991 80.6957 59.802L59.9207 48.5482L59.9133 36.8815C59.9131 36.6737 60.1356 36.5322 60.3285 36.6292L101.774 59.0664C101.952 59.1788 101.953 59.4459 101.775 59.5413ZM50.4035 50.0648V97.0648H51.4035V50.0648H50.4035ZM46.9035 93.5648V29.5648H47.9035V43.5648H48.9035V90.5648H47.9035V93.5648H46.9035Z" fill="white"/>
</g>
<path d="M123.599 63.5165V57.495C123.599 57.0619 123.528 56.6913 123.386 56.3831C123.245 56.0666 123.024 55.8209 122.724 55.646C122.433 55.4711 122.054 55.3837 121.587 55.3837C121.187 55.3837 120.842 55.4545 120.55 55.5961C120.259 55.7293 120.034 55.9251 119.876 56.1832C119.717 56.4331 119.638 56.7288 119.638 57.0702H116.04C116.04 56.4956 116.174 55.95 116.44 55.4337C116.707 54.9173 117.094 54.4634 117.602 54.0719C118.11 53.6722 118.714 53.3599 119.413 53.135C120.121 52.9101 120.913 52.7977 121.787 52.7977C122.836 52.7977 123.769 52.9726 124.585 53.3224C125.402 53.6722 126.043 54.1969 126.509 54.8965C126.984 55.5961 127.221 56.4706 127.221 57.52V63.3042C127.221 64.0454 127.267 64.6534 127.359 65.1281C127.45 65.5945 127.584 66.0026 127.759 66.3524V66.5648H124.123C123.948 66.1983 123.815 65.7403 123.723 65.1906C123.64 64.6326 123.599 64.0745 123.599 63.5165ZM124.073 58.332L124.098 60.3683H122.087C121.612 60.3683 121.2 60.4225 120.85 60.5307C120.5 60.639 120.213 60.7931 119.988 60.993C119.763 61.1845 119.597 61.4094 119.488 61.6676C119.388 61.9258 119.338 62.2089 119.338 62.5171C119.338 62.8253 119.409 63.1043 119.551 63.3541C119.692 63.5957 119.896 63.7872 120.163 63.9288C120.43 64.062 120.742 64.1287 121.1 64.1287C121.641 64.1287 122.112 64.0204 122.512 63.8039C122.911 63.5873 123.22 63.3208 123.436 63.0043C123.661 62.6878 123.778 62.388 123.786 62.1048L124.735 63.629C124.602 63.9704 124.419 64.3244 124.186 64.6909C123.961 65.0573 123.673 65.4029 123.324 65.7278C122.974 66.0442 122.553 66.3066 122.062 66.5148C121.571 66.7147 120.988 66.8146 120.313 66.8146C119.455 66.8146 118.676 66.6439 117.977 66.3024C117.285 65.9526 116.736 65.4737 116.328 64.8658C115.928 64.2494 115.728 63.5498 115.728 62.767C115.728 62.059 115.861 61.4302 116.128 60.8805C116.394 60.3309 116.786 59.8686 117.302 59.4938C117.827 59.1107 118.481 58.8234 119.264 58.6318C120.046 58.4319 120.954 58.332 121.987 58.332H124.073ZM133.593 55.9958V66.5648H129.995V53.0475H133.38L133.593 55.9958ZM137.665 52.9601L137.603 56.2957C137.428 56.2707 137.216 56.2499 136.966 56.2332C136.724 56.2082 136.504 56.1957 136.304 56.1957C135.796 56.1957 135.354 56.2624 134.979 56.3956C134.613 56.5205 134.305 56.7079 134.055 56.9578C133.813 57.2076 133.63 57.5116 133.505 57.8698C133.389 58.2279 133.322 58.636 133.305 59.0941L132.581 58.8692C132.581 57.9947 132.668 57.191 132.843 56.4581C133.018 55.7168 133.272 55.0714 133.605 54.5217C133.947 53.972 134.363 53.5472 134.855 53.2474C135.346 52.9476 135.908 52.7977 136.541 52.7977C136.741 52.7977 136.945 52.8143 137.153 52.8476C137.361 52.8726 137.532 52.9101 137.665 52.9601ZM146.61 53.0475V55.5961H138.74V53.0475H146.61ZM140.689 49.7119H144.287V62.4921C144.287 62.8836 144.337 63.1834 144.437 63.3916C144.545 63.5998 144.703 63.7456 144.911 63.8289C145.12 63.9038 145.382 63.9413 145.698 63.9413C145.923 63.9413 146.123 63.933 146.298 63.9163C146.481 63.8913 146.635 63.8663 146.76 63.8413L146.773 66.4898C146.465 66.5898 146.131 66.6689 145.773 66.7272C145.415 66.7855 145.02 66.8146 144.586 66.8146C143.795 66.8146 143.104 66.6855 142.513 66.4274C141.93 66.1608 141.48 65.7361 141.163 65.1531C140.847 64.5701 140.689 63.8039 140.689 62.8544V49.7119ZM152.17 47.3758V66.5648H148.572V47.3758H152.17ZM151.657 59.3314H150.67C150.679 58.3903 150.804 57.5241 151.045 56.7329C151.287 55.9334 151.632 55.2421 152.082 54.6591C152.532 54.0678 153.069 53.6097 153.694 53.2849C154.327 52.9601 155.026 52.7977 155.793 52.7977C156.459 52.7977 157.063 52.8935 157.604 53.085C158.154 53.2682 158.624 53.5681 159.016 53.9845C159.415 54.3926 159.724 54.9298 159.94 55.5961C160.157 56.2624 160.265 57.0702 160.265 58.0197V66.5648H156.642V57.9947C156.642 57.395 156.555 56.9245 156.38 56.583C156.213 56.2332 155.967 55.9875 155.643 55.8459C155.326 55.696 154.935 55.6211 154.468 55.6211C153.952 55.6211 153.511 55.7168 153.144 55.9084C152.786 56.1 152.499 56.3665 152.282 56.7079C152.066 57.0411 151.907 57.4325 151.807 57.8823C151.707 58.332 151.657 58.8151 151.657 59.3314ZM170.996 63.3291V53.0475H174.594V66.5648H171.209L170.996 63.3291ZM171.396 60.5557L172.458 60.5307C172.458 61.4302 172.354 62.2672 172.146 63.0418C171.937 63.808 171.625 64.4743 171.209 65.0407C170.792 65.5987 170.268 66.0359 169.635 66.3524C169.002 66.6606 168.256 66.8146 167.398 66.8146C166.74 66.8146 166.132 66.723 165.574 66.5398C165.025 66.3482 164.55 66.0526 164.15 65.6528C163.759 65.2447 163.451 64.7242 163.226 64.0912C163.009 63.4499 162.901 62.6795 162.901 61.78V53.0475H166.499V61.805C166.499 62.2048 166.545 62.5421 166.636 62.8169C166.736 63.0918 166.874 63.3166 167.049 63.4915C167.223 63.6664 167.428 63.7914 167.661 63.8663C167.902 63.9413 168.169 63.9788 168.46 63.9788C169.202 63.9788 169.785 63.8289 170.209 63.529C170.642 63.2292 170.946 62.8211 171.121 62.3047C171.304 61.78 171.396 61.197 171.396 60.5557ZM180.941 55.9958V66.5648H177.343V53.0475H180.728L180.941 55.9958ZM185.013 52.9601L184.951 56.2957C184.776 56.2707 184.564 56.2499 184.314 56.2332C184.072 56.2082 183.851 56.1957 183.652 56.1957C183.144 56.1957 182.702 56.2624 182.327 56.3956C181.961 56.5205 181.653 56.7079 181.403 56.9578C181.161 57.2076 180.978 57.5116 180.853 57.8698C180.737 58.2279 180.67 58.636 180.653 59.0941L179.929 58.8692C179.929 57.9947 180.016 57.191 180.191 56.4581C180.366 55.7168 180.62 55.0714 180.953 54.5217C181.295 53.972 181.711 53.5472 182.202 53.2474C182.694 52.9476 183.256 52.7977 183.889 52.7977C184.089 52.7977 184.293 52.8143 184.501 52.8476C184.709 52.8726 184.88 52.9101 185.013 52.9601ZM186.712 47.3758H190.31V63.4666L189.948 66.5648H186.712V47.3758ZM198.868 59.6687V59.9311C198.868 60.9388 198.76 61.8633 198.543 62.7045C198.335 63.5457 198.01 64.2744 197.569 64.8907C197.127 65.4987 196.577 65.9735 195.92 66.3149C195.27 66.6481 194.504 66.8146 193.621 66.8146C192.796 66.8146 192.08 66.6481 191.472 66.3149C190.872 65.9818 190.369 65.5112 189.96 64.9032C189.552 64.2952 189.223 63.5832 188.974 62.767C188.724 61.9508 188.536 61.0596 188.411 60.0935V59.5188C188.536 58.5527 188.724 57.6616 188.974 56.8454C189.223 56.0292 189.552 55.3171 189.96 54.7091C190.369 54.1011 190.872 53.6305 191.472 53.2974C192.072 52.9642 192.78 52.7977 193.596 52.7977C194.487 52.7977 195.262 52.9684 195.92 53.3099C196.586 53.643 197.136 54.1178 197.569 54.7341C198.01 55.3421 198.335 56.0666 198.543 56.9078C198.76 57.7407 198.868 58.661 198.868 59.6687ZM195.27 59.9311V59.6687C195.27 59.1191 195.228 58.6027 195.145 58.1196C195.07 57.6282 194.937 57.1993 194.745 56.8329C194.554 56.4581 194.291 56.1624 193.958 55.9459C193.633 55.7293 193.213 55.6211 192.696 55.6211C192.205 55.6211 191.789 55.7043 191.447 55.8709C191.106 56.0375 190.822 56.2707 190.598 56.5705C190.381 56.8703 190.219 57.2285 190.11 57.6449C190.002 58.053 189.935 58.5027 189.91 58.9941V60.6307C189.935 61.2886 190.044 61.8716 190.235 62.3797C190.435 62.8794 190.735 63.275 191.135 63.5665C191.543 63.8497 192.072 63.9913 192.721 63.9913C193.229 63.9913 193.65 63.8913 193.983 63.6914C194.316 63.4915 194.574 63.2084 194.758 62.8419C194.949 62.4755 195.083 62.0465 195.157 61.5552C195.232 61.0554 195.27 60.5141 195.27 59.9311ZM204.702 55.9958V66.5648H201.104V53.0475H204.49L204.702 55.9958ZM208.775 52.9601L208.712 56.2957C208.537 56.2707 208.325 56.2499 208.075 56.2332C207.834 56.2082 207.613 56.1957 207.413 56.1957C206.905 56.1957 206.463 56.2624 206.089 56.3956C205.722 56.5205 205.414 56.7079 205.164 56.9578C204.923 57.2076 204.739 57.5116 204.615 57.8698C204.498 58.2279 204.431 58.636 204.415 59.0941L203.69 58.8692C203.69 57.9947 203.778 57.191 203.952 56.4581C204.127 55.7168 204.381 55.0714 204.714 54.5217C205.056 53.972 205.472 53.5472 205.964 53.2474C206.455 52.9476 207.017 52.7977 207.65 52.7977C207.85 52.7977 208.054 52.8143 208.262 52.8476C208.471 52.8726 208.641 52.9101 208.775 52.9601ZM208.675 64.8283C208.675 64.2952 208.858 63.8497 209.224 63.4915C209.599 63.1334 210.095 62.9544 210.711 62.9544C211.327 62.9544 211.819 63.1334 212.185 63.4915C212.56 63.8497 212.747 64.2952 212.747 64.8283C212.747 65.3613 212.56 65.8069 212.185 66.165C211.819 66.5231 211.327 66.7022 210.711 66.7022C210.095 66.7022 209.599 66.5231 209.224 66.165C208.858 65.8069 208.675 65.3613 208.675 64.8283ZM223.229 62.8294C223.229 62.5712 223.154 62.338 223.004 62.1298C222.854 61.9216 222.575 61.7301 222.167 61.5552C221.767 61.3719 221.188 61.2054 220.43 61.0554C219.748 60.9055 219.11 60.7181 218.519 60.4933C217.936 60.2601 217.428 59.9811 216.995 59.6562C216.57 59.3314 216.237 58.9483 215.996 58.5069C215.754 58.0572 215.633 57.545 215.633 56.9703C215.633 56.4039 215.754 55.8709 215.996 55.3712C216.245 54.8715 216.599 54.4301 217.057 54.047C217.524 53.6555 218.09 53.3515 218.756 53.135C219.431 52.9101 220.189 52.7977 221.03 52.7977C222.204 52.7977 223.212 52.9851 224.053 53.3599C224.903 53.7346 225.553 54.251 226.002 54.909C226.46 55.5586 226.689 56.2998 226.689 57.1327H223.091C223.091 56.7829 223.016 56.4706 222.867 56.1957C222.725 55.9126 222.5 55.6919 222.192 55.5336C221.892 55.367 221.501 55.2838 221.018 55.2838C220.618 55.2838 220.272 55.3545 219.981 55.4961C219.689 55.6294 219.464 55.8126 219.306 56.0458C219.156 56.2707 219.081 56.5205 219.081 56.7954C219.081 57.0036 219.123 57.191 219.206 57.3576C219.298 57.5158 219.444 57.6616 219.643 57.7948C219.843 57.9281 220.101 58.053 220.418 58.1696C220.743 58.2779 221.143 58.3778 221.617 58.4694C222.592 58.6693 223.462 58.9317 224.228 59.2565C224.995 59.573 225.603 60.006 226.052 60.5557C226.502 61.0971 226.727 61.8092 226.727 62.692C226.727 63.2917 226.594 63.8413 226.327 64.3411C226.061 64.8408 225.677 65.278 225.178 65.6528C224.678 66.0193 224.078 66.3066 223.379 66.5148C222.688 66.7147 221.909 66.8146 221.043 66.8146C219.785 66.8146 218.719 66.5898 217.844 66.14C216.978 65.6903 216.32 65.1198 215.871 64.4285C215.429 63.7289 215.208 63.0127 215.208 62.2797H218.619C218.636 62.7711 218.761 63.1667 218.994 63.4666C219.235 63.7664 219.539 63.9829 219.906 64.1162C220.281 64.2494 220.684 64.3161 221.118 64.3161C221.584 64.3161 221.971 64.2536 222.279 64.1287C222.588 63.9954 222.821 63.8205 222.979 63.604C223.146 63.3791 223.229 63.1209 223.229 62.8294ZM228.488 59.9436V59.6812C228.488 58.6901 228.63 57.7782 228.913 56.9453C229.196 56.1041 229.609 55.3754 230.15 54.7591C230.691 54.1427 231.358 53.6638 232.149 53.3224C232.94 52.9726 233.848 52.7977 234.872 52.7977C235.897 52.7977 236.809 52.9726 237.608 53.3224C238.408 53.6638 239.078 54.1427 239.619 54.7591C240.169 55.3754 240.586 56.1041 240.869 56.9453C241.152 57.7782 241.294 58.6901 241.294 59.6812V59.9436C241.294 60.9263 241.152 61.8383 240.869 62.6795C240.586 63.5124 240.169 64.2411 239.619 64.8658C239.078 65.4821 238.412 65.961 237.621 66.3024C236.829 66.6439 235.922 66.8146 234.897 66.8146C233.873 66.8146 232.961 66.6439 232.161 66.3024C231.37 65.961 230.7 65.4821 230.15 64.8658C229.609 64.2411 229.196 63.5124 228.913 62.6795C228.63 61.8383 228.488 60.9263 228.488 59.9436ZM232.086 59.6812V59.9436C232.086 60.5099 232.136 61.0388 232.236 61.5302C232.336 62.0216 232.494 62.4546 232.711 62.8294C232.936 63.1959 233.227 63.4832 233.585 63.6914C233.944 63.8996 234.381 64.0038 234.897 64.0038C235.397 64.0038 235.826 63.8996 236.184 63.6914C236.542 63.4832 236.829 63.1959 237.046 62.8294C237.262 62.4546 237.421 62.0216 237.521 61.5302C237.629 61.0388 237.683 60.5099 237.683 59.9436V59.6812C237.683 59.1315 237.629 58.6152 237.521 58.1321C237.421 57.6407 237.258 57.2076 237.033 56.8329C236.817 56.4497 236.53 56.1499 236.171 55.9334C235.813 55.7168 235.38 55.6086 234.872 55.6086C234.364 55.6086 233.931 55.7168 233.573 55.9334C233.223 56.1499 232.936 56.4497 232.711 56.8329C232.494 57.2076 232.336 57.6407 232.236 58.1321C232.136 58.6152 232.086 59.1315 232.086 59.6812Z" fill="#E1E1E6"/>
<path d="M47.1294 20.8491L40.4283 7.9407L55.9035 7.50548L47.4299 20.8406C47.356 20.9643 47.1869 20.9691 47.1294 20.8491Z" fill="#00B37E"/>
</svg>
